<svg id="Capa_1" data-name="Capa 1" xmlns="http://www.w3.org/2000/svg" viewBox="0 0 400.32 442.69"><defs><style>.cls-1{fill:#fff;}</style></defs><path class="cls-1" d="M190.51,282h.12c25.09-.57,49-12.46,49-12.46a124.25,124.25,0,0,0,37.36-29.06A121.72,121.72,0,0,0,298.84,205a114.22,114.22,0,0,0,7.55-36.24,113.16,113.16,0,0,0-30.58,4.15,121.12,121.12,0,0,0-26,10.95,111.86,111.86,0,0,0-32.46,26,109.78,109.78,0,0,0-18.5,31.71,123.59,123.59,0,0,0-8.3,35.48"/><path class="cls-1" d="M184.6,281.59v-.08h0v0h0c-1.3-25.07-13.88-48.57-13.88-48.57a124.34,124.34,0,0,0-30.15-36.5,121.75,121.75,0,0,0-36.1-20.84A114.13,114.13,0,0,0,68,169.07a113,113,0,0,0,5,30.44,121.18,121.18,0,0,0,11.7,25.72,112.07,112.07,0,0,0,27,31.68A109.81,109.81,0,0,0,144,274.47a123.54,123.54,0,0,0,35.7,7.26"/><path class="cls-1" d="M183.52,290.82c32.58-.48,59.86,9.61,83.92,28.71,2.7,2.14,8.63,3.75,4.38,9.43-3.15,4.21-6.31,1.46-9.54-.09C210.65,304,159,303.24,107.54,329.23c-4.2,2.12-8.13,3.49-10.8-1s2.45-6.12,4.79-8C125.89,300.6,153.51,290,183.52,290.82Z"/><path class="cls-1" d="M183.24,234.09A123.8,123.8,0,0,1,163,203.62a109.92,109.92,0,0,1-10.44-35.32,112.33,112.33,0,0,1,3.3-41.62,121,121,0,0,1,9.92-26.56,113.59,113.59,0,0,1,18-25.19,114.18,114.18,0,0,1,21.28,30.44,122,122,0,0,1,10.86,40.4A127,127,0,0,1,191,234"/><path class="cls-1" d="M183.16,233.17a78.27,78.27,0,0,0,1.39,12.42,49,49,0,0,0,2.64,9,55.77,55.77,0,0,0,2.67-9.59,81.84,81.84,0,0,0,1.38-12.44"/></svg>